<?xml version="1.0" standalone="no"?><!DOCTYPE svg PUBLIC "-//W3C//DTD SVG 1.1//EN" "http://www.w3.org/Graphics/SVG/1.1/DTD/svg11.dtd"><svg t="1687506052758" class="icon" viewBox="0 0 1024 1024" version="1.1" xmlns="http://www.w3.org/2000/svg" p-id="15415" xmlns:xlink="http://www.w3.org/1999/xlink" width="32" height="32"><path d="M182.2 315.4C161 293.8 148 264.3 148 231.7c0-66 53.5-119.5 119.5-119.5 38.8 0 73.2 18.5 95.1 47.1 45.9-19.4 96.4-30.1 149.4-30.1s103.5 10.7 149.4 30.1c21.8-28.6 56.3-47.1 95.1-47.1 66 0 119.5 53.5 119.5 119.5 0 32.6-13.1 62.2-34.2 83.7 35.1 58 55.2 126.1 55.2 198.8 0 212.6-172.4 385-385 385s-385-172.4-385-385c0-72.7 20.2-140.7 55.2-198.8z" fill="#E3A87A" p-id="15416" data-spm-anchor-id="a313x.7781069.0.i1" class="selected"></path><path d="M512 914.2c-54 0-106.4-10.6-155.7-31.4-47.6-20.1-90.4-49-127.1-85.7s-65.6-79.5-85.7-127.1C122.6 620.6 112 568.2 112 514.2c0-69.2 17.9-137.1 51.7-196.9-19.9-24.1-30.7-54-30.7-85.6 0-74.2 60.3-134.5 134.5-134.5 38.4 0 74.1 15.9 99.6 44.1 46.2-18 94.9-27.1 144.9-27.1s98.8 9.1 144.9 27.1c25.5-28.1 61.2-44.1 99.6-44.1 74.2 0 134.5 60.3 134.5 134.5 0 31.6-10.8 61.5-30.7 85.6C894.1 377.2 912 445 912 514.2c0 54-10.6 106.4-31.4 155.7-20.1 47.6-49 90.4-85.7 127.1s-79.5 65.6-127.1 85.7C618.4 903.6 566 914.2 512 914.2z m-244.5-787c-57.6 0-104.5 46.9-104.5 104.5 0 27.6 10.6 53.5 29.9 73.2l8.2 8.3-6 10c-34.7 57.5-53.1 123.5-53.1 191 0 50 9.8 98.4 29.1 144 18.6 44.1 45.3 83.6 79.3 117.6S324 836.5 368 855.1c45.6 19.3 94.1 29.1 144 29.1s98.4-9.8 144-29.1c44.1-18.6 83.6-45.3 117.6-79.3s60.7-73.6 79.3-117.6c19.3-45.6 29.1-94.1 29.1-144 0-67.5-18.3-133.6-53.1-191l-6-10 8.2-8.3c19.3-19.7 29.9-45.7 29.9-73.2 0-57.6-46.9-104.5-104.5-104.5-32.9 0-63.2 15-83.1 41.2l-7 9.2-10.7-4.5c-45.5-19.2-93.8-28.9-143.6-28.9s-98.1 9.7-143.6 28.9l-10.7 4.5-7-9.2c-20.1-26.2-50.4-41.2-83.3-41.2z" fill="#525252" p-id="15417"></path><path d="M512.5 463.2c98.1 0 180.3 74 190.7 171.5l0.3 2.5c9.2 86.4-53.4 163.9-139.8 173.1-5.5 0.6-11.1 0.9-16.7 0.9h-69.1c-86.9 0-157.3-70.4-157.3-157.3 0-5.6 0.3-11.1 0.9-16.7l0.3-2.5c10.4-97.5 92.6-171.5 190.7-171.5z" fill="#FFFFFF" p-id="15418"></path><path d="M547.1 820.2H478c-91.7 0-166.3-74.6-166.3-166.3 0-5.9 0.3-11.8 0.9-17.6l0.3-2.5c5.3-49.4 28.5-94.8 65.4-128 36.9-33.2 84.6-51.5 134.3-51.5s97.3 18.3 134.3 51.5c36.9 33.2 60.2 78.7 65.4 128l0.3 2.5c4.7 44.2-8.1 87.5-36 122.1-27.9 34.6-67.6 56.2-111.8 60.9-5.9 0.6-11.9 0.9-17.7 0.9z m-34.6-348c-45.2 0-88.6 16.6-122.2 46.9-33.6 30.2-54.8 71.6-59.6 116.6l-0.3 2.5c-0.6 5.2-0.8 10.5-0.8 15.7 0 81.8 66.5 148.3 148.3 148.3H547c5.2 0 10.5-0.3 15.7-0.8 39.4-4.2 74.8-23.5 99.7-54.3 24.9-30.8 36.3-69.5 32.1-108.9l-0.3-2.5c-4.8-45-25.9-86.3-59.6-116.6-33.5-30.2-76.9-46.9-122.1-46.9z" fill="#525252" p-id="15419"></path><path d="M362 448.2m-25 0a25 25 0 1 0 50 0 25 25 0 1 0-50 0Z" fill="#525252" p-id="15420"></path><path d="M662 448.2m-25 0a25 25 0 1 0 50 0 25 25 0 1 0-50 0Z" fill="#525252" p-id="15421"></path><path d="M567.5 676.1c-12.1 9.3-29.5 15-48.7 16 1.3-1.6 2.2-3.6 2.2-5.8v-49.7c3.5-0.9 6.9-2.3 10-4.3l22.7-14.7c4.1-2.6 6.5-7.2 6.5-12 0-7.9-6.4-14.3-14.3-14.3h-66.1c-4.9 0-9.4 2.5-12 6.5-4.3 6.6-2.4 15.5 4.3 19.7l22.7 14.7c2.6 1.6 5.3 2.9 8.1 3.8v50.3c0 2.2 0.8 4.2 2 5.7-19.2-1.4-36.8-7.7-48.2-17.5-3.8-3.2-9.4-2.8-12.7 0.9-3.2 3.8-2.8 9.4 0.9 12.7 16.3 14.1 41.1 22.2 67.9 22.2 25.3 0 49.1-7.2 65.5-19.9 3.9-3 4.7-8.7 1.6-12.6-2.8-4-8.5-4.7-12.4-1.7z" fill="#525252" p-id="15422"></path></svg>